<?xml version="1.0" encoding="utf-8"?>
<!-- Generator: Adobe Illustrator 27.5.0, SVG Export Plug-In . SVG Version: 6.00 Build 0)  -->
<svg version="1.1" id="Layer_1" xmlns="http://www.w3.org/2000/svg" xmlns:xlink="http://www.w3.org/1999/xlink" x="0px" y="0px"
	 viewBox="0 0 28.3 28.3" style="enable-background:new 0 0 28.3 28.3;" xml:space="preserve">
<style type="text/css">
	.st0{fill:url(#SVGID_1_);}
	.st1{fill:#FFFFFF;}
</style>
<g>
	<radialGradient id="SVGID_1_" cx="12.0043" cy="11.6557" r="15.0205" gradientUnits="userSpaceOnUse">
		<stop  offset="0" style="stop-color:#F61A30"/>
		<stop  offset="1" style="stop-color:#560000"/>
	</radialGradient>
	<path class="st0" d="M14.2,28.3L14.2,28.3C6.3,28.3,0,22,0,14.2v0C0,6.3,6.3,0,14.1,0h0C22,0,28.3,6.3,28.3,14.1v0
		C28.3,22,22,28.3,14.2,28.3z"/>
	<path class="st1" d="M21.7,13.7c-0.3,0-0.5,0.2-0.5,0.5c0,2.4-2,4.4-4.5,4.4h-4.5v-2c0-0.2-0.1-0.3-0.3-0.4c-0.1,0-0.1,0-0.2,0
		c-0.1,0-0.2,0-0.3,0.1l-3,2.4c-0.1,0.1-0.2,0.2-0.2,0.4c0,0.1,0.1,0.3,0.2,0.4l3,2.4c0.1,0.1,0.3,0.1,0.5,0.1
		c0.2-0.1,0.3-0.3,0.3-0.4v-2h4.5c3,0,5.5-2.4,5.5-5.4C22.2,13.9,22,13.7,21.7,13.7z M11.1,20.5l-1.7-1.4l1.7-1.4V20.5z M11.7,9.8
		h4.5v2c0,0.2,0.1,0.3,0.3,0.4c0.1,0,0.1,0,0.2,0s0.2,0,0.3-0.1l3-2.4c0.1-0.1,0.2-0.2,0.2-0.4S20.1,9,20,8.9l-3-2.4
		c-0.1-0.1-0.3-0.1-0.5-0.1c-0.2,0.1-0.3,0.3-0.3,0.5v2h-4.5c-3,0-5.5,2.4-5.5,5.4c0,0.3,0.2,0.5,0.5,0.5s0.5-0.2,0.5-0.5
		C7.2,11.7,9.2,9.8,11.7,9.8z M17.2,7.9l1.7,1.4l-1.7,1.4V7.9z"/>
</g>
</svg>
