<?xml version="1.0" encoding="utf-8"?>
<svg xmlns="http://www.w3.org/2000/svg" fill="none" height="77" viewBox="0 0 331 77" width="331">
<path clip-rule="evenodd" d="M111.557 8.80014C109.133 8.80014 107.168 10.7701 107.168 13.2002V61.601C107.168 64.0311 109.133 66.0011 111.557 66.0011H159.842C162.266 66.0011 164.231 64.0311 164.231 61.601V13.2002C164.231 10.7701 162.266 8.80014 159.842 8.80014H111.557ZM113.298 12.745C112.086 12.745 111.103 13.73 111.103 14.9451V59.8562C111.103 61.0712 112.086 62.0562 113.298 62.0562H124.726V41.8007C123.514 41.8007 122.531 40.8157 122.531 39.6006V13.2002C122.531 13.0442 122.548 12.8919 122.578 12.745H113.298ZM129.115 62.0562V41.8007C130.327 41.8007 131.31 40.8157 131.31 39.6006V13.2002C131.31 13.0993 131.303 13 131.29 12.9027C131.283 12.8495 131.274 12.7969 131.263 12.745H140.136C140.105 12.8919 140.089 13.0442 140.089 13.2002V39.6006C140.089 40.8157 141.072 41.8007 142.284 41.8007V62.0562H129.115ZM146.673 41.8007V62.0562H158.101C159.313 62.0562 160.296 61.0712 160.296 59.8562V14.9451C160.296 13.73 159.313 12.745 158.101 12.745H148.821C148.852 12.8919 148.868 13.0442 148.868 13.2002V39.6006C148.868 40.8157 147.885 41.8007 146.673 41.8007Z" fill="white" fill-rule="evenodd"/>
<path clip-rule="evenodd" d="M53.3153 21.7579L64.8053 14.5373C65.7224 13.9204 65.9868 12.6822 65.4024 11.7408C64.8181 10.7993 63.5962 10.4948 62.6426 11.0529L47.8474 20.3529C43.1888 19.4179 38.0758 18.9607 33.079 18.9607C17.3377 18.9607 0.396484 23.4559 0.396484 33.3454V53.8949C0.396484 61.8386 15.0296 68.2796 33.079 68.2796C51.1284 68.2796 65.7615 61.8386 65.7615 53.8949V33.3454C65.7615 27.8894 60.5885 24.0813 53.3153 21.7579ZM12.6524 60.7611C7.43343 58.6907 4.4818 56.0449 4.4818 53.8949V40.783C6.59212 42.4527 9.40332 43.8115 12.6524 44.8672V60.7611ZM31.0363 64.1248C25.5288 63.9719 20.7043 63.2257 16.7377 62.1212V45.9872C21.1869 47.0147 26.1237 47.5721 31.0363 47.6928V64.1248ZM49.4202 62.1212C45.4536 63.2193 40.6291 63.9719 35.1216 64.1248V47.6928C40.0342 47.5721 44.971 47.0121 49.4202 45.9872V62.1212ZM61.6762 53.8949C61.6762 56.0449 58.7245 58.6907 53.5055 60.7611V44.8672C56.7546 43.8115 59.5658 42.4539 61.6762 40.783V53.8949ZM33.079 43.6201C17.2854 43.6201 4.4818 39.0196 4.4818 33.3453C4.4818 27.6711 17.2854 23.0706 33.079 23.0706C36.256 23.069 39.4299 23.2667 42.5824 23.6626L29.955 31.6025C29.0379 32.2195 28.7735 33.4576 29.3578 34.3991C29.9421 35.3405 31.164 35.6451 32.1176 35.0869L48.6006 24.7222C56.4623 26.5537 61.6761 29.7273 61.6761 33.3454C61.6761 39.0196 48.8725 43.6201 33.079 43.6201Z" fill="white" fill-rule="evenodd"/>
<path d="M1.45602 12.3315C2.21367 11.5141 3.48664 11.4695 4.29928 12.2319L32.0882 38.3015C32.9008 39.0639 32.9454 40.3445 32.1878 41.1619L31.9679 41.399C31.2103 42.2164 29.9373 42.261 29.1247 41.4986L1.33577 15.429C0.523125 14.6666 0.478542 13.386 1.23619 12.5686L1.45602 12.3315Z" fill="white"/>
<path d="M302.201 42.0973V39.3572C302.201 38.9454 302.029 38.5505 301.724 38.2593C301.419 37.9681 301.005 37.8045 300.574 37.8045C300.142 37.8045 299.728 37.9681 299.423 38.2593C299.118 38.5505 298.946 38.9454 298.946 39.3572V42.0973C298.946 42.5091 299.118 42.904 299.423 43.1952C299.728 43.4864 300.142 43.65 300.574 43.65C301.005 43.65 301.419 43.4864 301.724 43.1952C302.029 42.904 302.201 42.5091 302.201 42.0973Z" fill="white"/>
<path d="M322.301 36.0434C320.158 36.0542 318.106 36.8713 316.591 38.3171C315.076 39.7629 314.22 41.7207 314.208 43.7654V65.1096C314.197 66.3311 313.684 67.4996 312.779 68.3634C311.874 69.2272 310.649 69.7171 309.369 69.7278H307.045C305.764 69.7173 304.54 69.2274 303.634 68.3636C302.729 67.4998 302.216 66.3312 302.205 65.1096V63.3788C303.848 63.0381 305.334 62.2059 306.447 61.0033C307.56 59.8007 308.242 58.2905 308.393 56.6926L310.833 28.4796C312.952 26.5231 314.411 24.0072 315.022 21.2544C315.634 18.5016 315.369 15.6374 314.263 13.0289C313.157 10.4204 311.26 8.18649 308.815 6.61352C306.37 5.04054 303.488 4.2002 300.539 4.2002C297.59 4.2002 294.708 5.04054 292.263 6.61352C289.818 8.18649 287.921 10.4204 286.815 13.0289C285.709 15.6374 285.445 18.5016 286.056 21.2544C286.667 24.0072 288.126 26.5231 290.245 28.4796L292.685 56.6926C292.84 58.301 293.532 59.8194 294.66 61.0239C295.788 62.2284 297.291 63.0552 298.949 63.3825V65.083C298.961 67.1275 299.818 69.0848 301.334 70.5299C302.85 71.975 304.902 72.7912 307.045 72.8013H309.378C311.521 72.7903 313.573 71.9731 315.088 70.5273C316.603 69.0815 317.459 67.1238 317.47 65.0793V43.7587C317.443 43.1365 317.548 42.5154 317.779 41.9328C318.009 41.3503 318.361 40.8182 318.813 40.3687C319.264 39.9192 319.807 39.5615 320.407 39.3172C321.007 39.0728 321.653 38.9468 322.306 38.9468C322.959 38.9468 323.605 39.0728 324.205 39.3172C324.805 39.5615 325.348 39.9192 325.799 40.3687C326.251 40.8182 326.603 41.3503 326.834 41.9328C327.064 42.5154 327.169 43.1365 327.142 43.7587V60.2749C327.142 60.6867 327.313 61.0816 327.618 61.3728C327.923 61.664 328.337 61.8275 328.769 61.8275C329.2 61.8275 329.614 61.664 329.92 61.3728C330.225 61.0816 330.396 60.6867 330.396 60.2749V43.7587C330.383 41.7149 329.525 39.7584 328.01 38.314C326.494 36.8695 324.443 36.0536 322.301 36.0434ZM300.576 7.36454C303.349 7.37625 306.026 8.33908 308.117 10.0773C310.208 11.8156 311.574 14.2133 311.967 16.833H289.156C289.549 14.2086 290.92 11.8073 293.017 10.0684C295.114 8.32953 297.798 7.36942 300.576 7.3638V7.36454ZM289.155 19.9147H311.996C311.606 22.5397 310.236 24.9421 308.138 26.6802C306.039 28.4184 303.354 29.3754 300.576 29.3754C297.797 29.3754 295.112 28.4184 293.014 26.6802C290.915 24.9421 289.545 22.5397 289.155 19.9147ZM296.004 56.4397L293.757 30.9047C295.861 31.9558 298.201 32.5049 300.576 32.5049C302.951 32.5049 305.291 31.9558 307.395 30.9047L305.147 56.4567C305.063 57.5599 304.545 58.5919 303.696 59.3452C302.847 60.0985 301.731 60.5173 300.572 60.5173C299.412 60.5173 298.296 60.0985 297.447 59.3452C296.599 58.5919 296.08 57.5599 295.996 56.4567L296.004 56.4397Z" fill="white"/>
<path clip-rule="evenodd" d="M222.19 58.9224C221.711 58.4315 221.301 57.868 220.977 57.247C220.222 55.7988 219.982 54.1278 220.297 52.5188C220.613 50.9098 221.464 49.4623 222.707 48.4228C223.95 47.3833 225.507 46.8161 227.113 46.8179C228.025 46.8189 228.929 47.0038 229.772 47.362C230.615 47.7202 231.38 48.2447 232.024 48.9055C233.323 50.2338 234.054 52.0341 234.056 53.9118C234.058 55.5535 233.502 57.1449 232.484 58.4149C231.465 59.6848 230.048 60.5546 228.472 60.876C226.896 61.1974 225.26 60.9505 223.843 60.1773C223.229 59.8428 222.673 59.4187 222.19 58.9224ZM229.569 56.421C229.001 57.0005 228.252 57.3609 227.453 57.4409C226.654 57.5209 225.853 57.3155 225.186 56.8596C224.519 56.4038 224.027 55.7258 223.794 54.9411C223.762 54.833 223.735 54.7238 223.713 54.6138C223.58 53.9288 223.648 53.2159 223.911 52.566C224.218 51.8084 224.773 51.1832 225.481 50.7966C226.189 50.4101 227.006 50.2862 227.793 50.4462C228.58 50.6061 229.289 51.0398 229.798 51.6736C230.161 52.1253 230.407 52.6587 230.518 53.2247C230.562 53.4497 230.584 53.6797 230.584 53.9118C230.585 54.3777 230.495 54.8391 230.321 55.2697C230.147 55.7002 229.891 56.0915 229.569 56.421Z" fill="white" fill-rule="evenodd"/>
<path d="M219.579 66.0011C219.579 64.786 220.543 63.8011 221.732 63.8011H232.499C233.688 63.8011 234.652 64.786 234.652 66.0011C234.652 67.2161 233.688 68.2011 232.499 68.2011H221.732C220.543 68.2011 219.579 67.2161 219.579 66.0011Z" fill="white"/>
<path clip-rule="evenodd" d="M217.426 2.20004C217.426 0.98499 218.39 0 219.579 0H234.652C235.842 0 236.806 0.98499 236.806 2.20004V11.0002C236.806 12.2152 235.842 13.2002 234.652 13.2002H234.059L234.076 26.5274C241.382 28.4528 244.82 32.8875 243.812 39.0937C243.03 43.8575 244.416 46.2185 246.105 49.0986L246.208 49.2744V49.2643C247.677 51.3542 248.719 53.7253 249.27 56.2359C249.822 58.7464 249.872 61.3448 249.418 63.8756C247.942 74.3645 237.129 76.9993 229.751 76.9993C228.87 77.0058 227.989 76.9645 227.113 76.8757C220.033 77.5506 206.545 75.688 204.809 63.8777C204.358 61.3453 204.411 58.7459 204.965 56.2349C205.52 53.724 206.565 51.3532 208.037 49.2643C209.824 46.301 211.225 43.9601 210.431 39.0673C209.423 32.8774 212.861 28.4609 220.169 26.5111V13.2002H219.579C218.39 13.2002 217.426 12.2152 217.426 11.0002V2.20004ZM223.643 13.2002V17.6003H230.586V13.2002H223.643ZM221.732 4.40007H232.499V8.80015H221.732V4.40007ZM230.586 19.8003V24.2004H223.643V19.8003H230.586ZM230.586 30.8005V26.4004H223.643V30.8005H230.586ZM230.586 33.0005V37.9607H223.643V33.0005H230.586ZM227.349 73.4338C228.479 73.5083 244.421 74.5585 245.982 63.3933V63.3831C246.377 61.2588 246.337 59.074 245.865 56.9661C245.393 54.8583 244.5 52.8729 243.241 51.135C241.92 49.3518 240.981 47.3051 240.484 45.1274C239.987 42.9497 239.944 40.6897 240.356 38.4937C240.999 34.4928 238.898 31.7079 234.056 30.1837V39.724C234.055 40.1942 233.872 40.645 233.547 40.9774C233.221 41.3099 232.78 41.4969 232.32 41.4975H221.905C221.677 41.4977 221.451 41.4521 221.241 41.363C221.03 41.274 220.838 41.1434 220.677 40.9786C220.516 40.8139 220.388 40.6183 220.301 40.403C220.214 40.1877 220.169 39.957 220.169 39.724V30.2587C215.329 31.7789 213.21 34.5637 213.871 38.5647C214.284 40.7612 214.241 43.0217 213.744 45.2001C213.247 47.3784 212.309 49.4259 210.989 51.21C209.729 52.9488 208.835 54.9351 208.363 57.044C207.89 59.1529 207.85 61.3388 208.245 63.4642C209.809 74.6621 225.715 73.5179 226.875 73.4344C226.912 73.4317 226.935 73.4301 226.94 73.4301H227.287L227.307 73.4311L227.349 73.4338Z" fill="white" fill-rule="evenodd"/>
<path d="M187.95 37.7296H191.619V40.3741H187.95V43.9364H185.314V40.3741H181.645V37.7296H185.314V34.1082H187.95V37.7296Z" fill="white"/>
<path d="M87.2177 37.7296H90.8869V40.3741H87.2177V43.9364H84.5813V40.3741H80.9121V37.7296H84.5813V34.1082H87.2177V37.7296Z" fill="white"/>
<path d="M268.899 37.7296H272.569V40.3741H268.899V43.9364H266.263V40.3741H262.594V37.7296H266.263V34.1082H268.899V37.7296Z" fill="white"/>
</svg>