<?xml version="1.0" encoding="utf-8"?>
<!-- Generator: Adobe Illustrator 27.5.0, SVG Export Plug-In . SVG Version: 6.00 Build 0)  -->
<svg version="1.1" id="Layer_1" xmlns="http://www.w3.org/2000/svg" xmlns:xlink="http://www.w3.org/1999/xlink" x="0px" y="0px"
	 viewBox="0 0 28.3 28.3" style="enable-background:new 0 0 28.3 28.3;" xml:space="preserve">
<style type="text/css">
	.st0{fill:url(#SVGID_1_);}
	.st1{fill:#FFFFFF;}
</style>
<g>
	<radialGradient id="SVGID_1_" cx="12.0043" cy="11.6557" r="15.0205" gradientUnits="userSpaceOnUse">
		<stop  offset="0" style="stop-color:#F61A30"/>
		<stop  offset="1" style="stop-color:#560000"/>
	</radialGradient>
	<path class="st0" d="M14.2,28.3L14.2,28.3C6.3,28.3,0,22,0,14.2v0C0,6.3,6.3,0,14.1,0h0C22,0,28.3,6.3,28.3,14.1v0
		C28.3,22,22,28.3,14.2,28.3z"/>
	<path class="st1" d="M20,6.5c-0.1,0-0.2,0-0.3,0l-8.6,2.9c-0.4,0.1-0.7,0.5-0.7,0.9v7.2C9.9,17.2,9.3,17,8.6,17
		c-1.6,0-2.8,1-2.8,2.4c0,1.3,1.3,2.4,2.8,2.4s2.8-1,2.8-2.4v-5.2l8.5-2.9v4.4C19.4,15.2,18.7,15,18,15c-1.6,0-2.8,1-2.8,2.3
		s1.3,2.3,2.8,2.3c1.6,0,2.8-1,2.8-2.4V7.3C20.9,6.9,20.5,6.5,20,6.5z M8.6,20.8c-1,0-1.9-0.6-1.9-1.4S7.6,18,8.6,18
		s1.9,0.7,1.9,1.4S9.6,20.8,8.6,20.8z M18,18.9c-1,0-1.9-0.6-1.9-1.4c0-0.7,0.9-1.4,1.9-1.4s1.9,0.7,1.9,1.4
		C20,18.2,19.1,18.9,18,18.9z M20,10.3l-8.5,2.9v-2.8l0,0L20,7.6C20,7.5,20,10.3,20,10.3z"/>
</g>
</svg>
