<?xml version="1.0" encoding="utf-8"?>
<!-- Generator: Adobe Illustrator 27.5.0, SVG Export Plug-In . SVG Version: 6.00 Build 0)  -->
<svg version="1.1" id="Layer_1" xmlns="http://www.w3.org/2000/svg" xmlns:xlink="http://www.w3.org/1999/xlink" x="0px" y="0px"
	 viewBox="0 0 28.3 28.3" style="enable-background:new 0 0 28.3 28.3;" xml:space="preserve">
<style type="text/css">
	.st0{fill:url(#SVGID_1_);}
	.st1{fill:#FFFFFF;}
</style>
<g>
	<radialGradient id="SVGID_1_" cx="12.0043" cy="11.6557" r="15.0205" gradientUnits="userSpaceOnUse">
		<stop  offset="0" style="stop-color:#F61A30"/>
		<stop  offset="1" style="stop-color:#560000"/>
	</radialGradient>
	<path class="st0" d="M14.2,28.3L14.2,28.3C6.3,28.3,0,22,0,14.2v0C0,6.3,6.3,0,14.1,0h0C22,0,28.3,6.3,28.3,14.1v0
		C28.3,22,22,28.3,14.2,28.3z"/>
	<path class="st1" d="M21.6,12.4H20V8.7c0-0.2-0.1-0.4-0.3-0.6c-0.2-0.1-0.3-0.2-0.6-0.2H6.8C6.5,7.9,6.3,8,6.2,8.1
		C6,8.3,5.9,8.5,5.9,8.7v8.2c0,0.2,0.1,0.4,0.3,0.6c0.2,0.1,0.3,0.2,0.6,0.2h5.9v1.7h-2.1v1.1h5.2v-1.1h-2.1v-1.7h3.2v2
		c0,0.2,0.1,0.4,0.3,0.6c0.2,0.1,0.3,0.2,0.6,0.2h3.9c0.2,0,0.4-0.1,0.6-0.2s0.3-0.3,0.3-0.6v-6.4c0-0.2-0.1-0.4-0.3-0.6
		C22,12.5,21.8,12.4,21.6,12.4z M16.9,13.3v3.4H7V9h11.8v3.5h-1.1c-0.2,0-0.4,0.1-0.6,0.2C17,12.8,16.9,13,16.9,13.3z M21.3,19.4H18
		v-5.9h3.3V19.4z"/>
</g>
</svg>
