<?xml version="1.0" encoding="utf-8"?>
<!-- Generator: Adobe Illustrator 27.5.0, SVG Export Plug-In . SVG Version: 6.00 Build 0)  -->
<svg version="1.1" id="Layer_1" xmlns="http://www.w3.org/2000/svg" xmlns:xlink="http://www.w3.org/1999/xlink" x="0px" y="0px"
	 viewBox="0 0 28.3 28.3" style="enable-background:new 0 0 28.3 28.3;" xml:space="preserve">
<style type="text/css">
	.st0{fill:url(#SVGID_1_);}
	.st1{fill:#FFFFFF;}
</style>
<g>
	<radialGradient id="SVGID_1_" cx="12.0043" cy="11.6557" r="15.0205" gradientUnits="userSpaceOnUse">
		<stop  offset="0" style="stop-color:#F61A30"/>
		<stop  offset="1" style="stop-color:#560000"/>
	</radialGradient>
	<path class="st0" d="M14.2,28.3L14.2,28.3C6.3,28.3,0,22,0,14.2v0C0,6.3,6.3,0,14.1,0h0C22,0,28.3,6.3,28.3,14.1v0
		C28.3,22,22,28.3,14.2,28.3z"/>
	<path class="st1" d="M12.2,17.2c0-1,0.7-1.7,1.5-2V9.1c0-0.3,0.3-0.5,0.5-0.5c0.3,0,0.5,0.3,0.5,0.5v6.1c0.9,0.2,1.5,1,1.5,2
		c0,1.1-0.9,2-2,2C13,19.2,12.2,18.3,12.2,17.2z M14.2,18.2c0.6,0,1-0.4,1-1s-0.4-1-1-1s-1,0.4-1,1C13.2,17.7,13.6,18.2,14.2,18.2z
		 M9.9,10.7c0-0.4,0.3-0.7,0.7-0.7s0.7,0.3,0.7,0.7s-0.3,0.7-0.7,0.7S9.9,11.1,9.9,10.7z M9.9,14.2c0,0.4-0.3,0.7-0.7,0.7
		s-0.7-0.3-0.7-0.7s0.3-0.7,0.7-0.7C9.6,13.4,9.9,13.7,9.9,14.2z M18.4,14.2c0-0.4,0.3-0.7,0.7-0.7c0.4,0,0.7,0.3,0.7,0.7
		s-0.3,0.7-0.7,0.7C18.8,14.9,18.4,14.6,18.4,14.2z M18.4,10.7c0,0.4-0.3,0.7-0.7,0.7c-0.4,0-0.7-0.3-0.7-0.7s0.3-0.7,0.7-0.7
		C18.1,9.9,18.4,10.2,18.4,10.7z M6.2,14.2c0-4.4,3.6-8,8-8s8,3.6,8,8s-3.6,8-8,8S6.2,18.6,6.2,14.2z M14.2,21.2c3.9,0,7-3.1,7-7
		s-3.1-7-7-7s-7,3.1-7,7C7.2,18,10.3,21.2,14.2,21.2z"/>
</g>
</svg>
