<?xml version="1.0" encoding="utf-8"?>
<!-- Generator: Adobe Illustrator 27.5.0, SVG Export Plug-In . SVG Version: 6.00 Build 0)  -->
<svg version="1.1" id="Layer_1" xmlns="http://www.w3.org/2000/svg" xmlns:xlink="http://www.w3.org/1999/xlink" x="0px" y="0px"
	 viewBox="0 0 28.3 28.3" style="enable-background:new 0 0 28.3 28.3;" xml:space="preserve">
<style type="text/css">
	.st0{fill:url(#SVGID_1_);}
	.st1{fill:#FFFFFF;}
</style>
<g>
	<radialGradient id="SVGID_1_" cx="12.0043" cy="11.6557" r="15.0205" gradientUnits="userSpaceOnUse">
		<stop  offset="0" style="stop-color:#F61A30"/>
		<stop  offset="1" style="stop-color:#560000"/>
	</radialGradient>
	<path class="st0" d="M14.2,28.3L14.2,28.3C6.3,28.3,0,22,0,14.2v0C0,6.3,6.3,0,14.1,0h0C22,0,28.3,6.3,28.3,14.1v0
		C28.3,22,22,28.3,14.2,28.3z"/>
	<path class="st1" d="M16.5,6.9C16.3,6.4,15.8,6,15.3,6h-2.2c-0.6,0-1.1,0.4-1.2,0.9L8.4,19.7c-0.1,0.4,0,0.8,0.2,1.1
		c0.1,0.2,0.3,0.3,0.5,0.4v0.3c0,0.5,0.4,0.9,1,0.9h1c0.5,0,1-0.4,1-0.9v-0.2h4.3v0.2c0,0.5,0.4,0.9,1,0.9h1c0.5,0,1-0.4,1-0.9v-0.3
		c0.2-0.1,0.4-0.2,0.5-0.4c0.3-0.3,0.3-0.7,0.2-1.1L18,12.1L17.4,13l0.8,2.9h-3.3l1-1.7l0,0l2.5-4.2l0,0V9.9l0,0l0,0
		c0.1,0,0.1,0,0.2,0c0.3-0.1,0.6-0.4,0.6-0.8c0-0.2,0-0.3-0.1-0.5L19.4,8c0.1-0.2,0-0.4-0.1-0.5c-0.2-0.1-0.4,0-0.5,0.1l-0.3,0.6
		l0,0c-0.5,0-0.9,0.4-0.9,0.8c0,0.2,0,0.3,0.1,0.5l-0.4,0.7L16.5,6.9z M11.2,21.4c0,0.1-0.1,0.2-0.2,0.2h-1c-0.1,0-0.2-0.1-0.2-0.2
		v-0.2h1.4V21.4L11.2,21.4z M18.5,21.4c0,0.1-0.1,0.2-0.2,0.2h-1c-0.1,0-0.2-0.1-0.2-0.2v-0.2h1.4L18.5,21.4L18.5,21.4z M19.2,19.9
		c0,0.1,0,0.3-0.1,0.4s-0.3,0.2-0.4,0.2H9.5c-0.2,0-0.3-0.1-0.4-0.2c0-0.1-0.1-0.3,0-0.4l0.9-3.3h8.4L19.2,19.9z M14,15.9h-3.8
		l2.4-8.8c0-0.2,0.3-0.3,0.5-0.3h2.2c0.2,0,0.4,0.1,0.5,0.3l1.1,3.8L14,15.9z"/>
</g>
</svg>
